# 3ds Max Wavefront OBJ Exporter v0.97b - (c)2007 guruware
# File Created: 31.10.2018 00:55:22

mtllib Cardboard_Little.mtl

#
# object GR_Cardboard_Little
#

v  16.0000 0.0000 -16.0000
v  16.0000 -0.0000 16.0000
v  -16.0000 -0.0000 16.0000
v  -16.0000 0.0000 -16.0000
v  16.0000 32.0000 -16.0000
v  -16.0000 32.0000 -16.0000
v  -16.0000 32.0000 16.0000
v  16.0000 32.0000 16.0000
# 8 vertices

vn 0.0000 -1.0000 -0.0000
vn 0.0000 1.0000 -0.0000
vn 0.0000 0.0000 1.0000
vn 1.0000 0.0000 -0.0000
vn 0.0000 0.0000 -1.0000
vn -1.0000 0.0000 -0.0000
# 6 vertex normals

vt 0.9199 0.9102 0.9102
vt 0.5996 0.9102 0.9102
vt 0.5996 0.5879 0.5879
vt 0.9199 0.5879 0.5879
vt 0.4082 0.8262 0.8262
vt 0.0879 0.8262 0.8262
vt 0.0879 0.5039 0.5039
vt 0.4082 0.5039 0.5039
vt 0.0879 0.1816 0.1816
vt 0.4082 0.1816 0.1816
vt 0.9199 0.5039 0.5039
vt 0.5996 0.5039 0.5039
vt 0.5996 0.1816 0.1816
vt 0.9199 0.1816 0.1816
# 14 texture coords

o GR_Cardboard_Little
g GR_Cardboard_Little
usemtl GR_ST_Cardboard_Mat
s 1
f 1/1/1 2/2/1 3/3/1 
f 3/3/1 4/4/1 1/1/1 
f 5/5/2 6/6/2 7/7/2 
f 7/7/2 8/8/2 5/5/2 
f 8/8/3 7/7/3 3/9/3 
f 3/9/3 2/10/3 8/8/3 
f 5/11/4 8/12/4 2/13/4 
f 2/13/4 1/14/4 5/11/4 
f 6/8/5 5/7/5 1/9/5 
f 1/9/5 4/10/5 6/8/5 
f 7/11/6 6/12/6 4/13/6 
f 4/13/6 3/14/6 7/11/6 
# 0 polygons - 12 triangles

